<svg width="112" height="52" viewBox="0 0 112 52" fill="none" xmlns="http://www.w3.org/2000/svg">
<rect width="112" height="52" fill="#F5F5F5"/>
<g id="Home V2" clip-path="url(#clip0_2798_7604)">
<rect width="1440" height="9935" transform="translate(-122 -21)" fill="white"/>
<rect id="Rectangle 34624289" x="-122" y="-21" width="1440" height="809" fill="white"/>
<g id="Isolation_Mode" clip-path="url(#clip1_2798_7604)">
<path id="Vector" d="M65.5379 34.3122C63.4666 42.1818 54.2356 52.4806 40.0438 51.9745C29.2274 51.595 17.4648 42.6626 16.5187 34.2363C18.0785 35.375 19.7406 36.3366 21.684 36.6402C22.1954 36.7161 22.3488 37.121 22.579 37.5006C26.8237 43.9784 32.8584 47.5463 40.5552 47.6981C48.3799 47.85 54.6191 44.4592 59.0685 37.9813C59.6054 37.1969 60.1169 36.6149 61.1653 36.4631C61.9579 36.3619 62.7251 35.957 63.4411 35.6028C64.157 35.2485 64.8219 34.7677 65.5123 34.3122H65.5379Z" fill="#05AA85"/>
<path id="Vector_2" d="M65.6657 17.9148C64.0547 16.5484 62.3671 15.7134 60.5004 15.3591C59.8867 15.2326 59.631 14.8277 59.3497 14.3976C50.4511 0.834554 31.5031 0.859858 22.5789 14.4735C22.4255 14.7012 22.2721 15.1061 22.0931 15.1567C20.0986 15.511 18.3853 16.5231 16.4675 17.4847C20.2776 6.40146 30.5315 -0.380045 42.6264 -0.000482749C52.7013 0.328471 62.9808 8.22336 65.6657 17.9148Z" fill="#05AA85"/>
<path id="Vector_3" d="M45.3373 25.5575C47.6131 26.6709 48.6615 28.341 48.2779 30.7195C47.9455 32.7945 46.309 34.3633 43.9565 34.4899C40.9391 34.667 37.9218 34.5658 34.8788 34.6164C34.2396 34.6164 34.214 34.2621 34.214 33.7813C34.214 28.4675 34.214 23.1283 34.214 17.8144C34.214 17.2071 34.3418 16.9541 35.0067 16.9794C37.6916 17.03 40.3765 16.9035 43.0615 17.0553C46.5391 17.2577 48.4569 19.6363 47.7921 22.6475C47.5108 23.9633 46.6925 24.849 45.3117 25.5575H45.3373ZM40.4788 31.1244C41.1692 31.0991 41.8597 31.1244 42.4989 30.9979C43.1638 30.8461 43.7263 30.4665 43.8542 29.6821C43.9565 28.9736 43.8542 28.341 43.3172 27.8349C42.8569 27.43 39.3537 27.0251 38.8423 27.3541C38.7656 27.4047 38.6377 27.4806 38.6377 27.5312C38.6377 28.6193 38.4076 29.7833 38.6889 30.7955C38.8679 31.4534 39.8907 30.922 40.5044 31.0991L40.4788 31.1244ZM40.172 24.1152C40.7857 24.1152 41.2204 24.1658 41.6295 24.1152C42.7035 23.9633 43.5473 23.5585 43.4706 22.2173C43.3939 20.9774 42.5756 20.6232 41.5528 20.522C40.7857 20.4461 40.0186 20.522 39.277 20.522C39.0469 20.522 38.6633 20.522 38.6633 20.7244C38.6122 21.7619 38.4587 22.85 38.6889 23.8368C38.8423 24.4947 39.7884 23.9886 40.172 24.1152Z" fill="#1D3D70"/>
<path id="Vector_4" d="M14.0128 34.616C12.3251 34.616 10.8676 34.616 9.38448 34.616C8.82192 34.616 8.69407 34.1858 8.4895 33.8063C7.59452 32.2121 6.72511 30.6179 5.83014 29.0491C5.6 28.6189 5.49772 27.8598 4.80731 28.0622C4.14247 28.2647 4.47489 28.9732 4.44932 29.4539C4.39817 30.8963 4.42374 32.3386 4.44932 33.7556C4.44932 34.3629 4.27032 34.6666 3.63105 34.5907C3.57991 34.5907 3.52877 34.5907 3.47763 34.5907C1.15921 34.7256 0 33.6291 0 31.3011C0 26.9488 0.0255708 22.5712 0 18.2189C0 17.2067 0.281279 16.9284 1.27854 16.9537C3.47763 17.0296 5.67671 16.9284 7.90137 17.0043C11.0977 17.1055 13.3224 18.8009 13.8594 21.4072C14.3708 23.887 13.3479 26.1138 11.021 27.2272C10.1005 27.6574 10.126 27.9863 10.5863 28.7454C11.737 30.6179 12.7854 32.5157 14.0128 34.616ZM6.29041 24.8992C6.44384 24.8992 6.57169 24.8992 6.72512 24.8992C8.66849 24.8739 9.56347 24.2413 9.58904 22.8496C9.61461 21.4325 8.74521 20.724 6.85297 20.6228C4.44932 20.4963 4.44932 20.4963 4.44932 22.9002C4.44932 25.1522 4.16804 24.8486 6.29041 24.8992Z" fill="#1D3D70"/>
<path id="Vector_5" d="M23.9087 17.2324C28.9462 17.2324 32.7818 21.104 32.6795 26.0889C32.6028 31.0991 28.716 34.8694 23.7297 34.8188C18.6411 34.7429 14.9589 30.9473 14.9845 25.7599C15.0356 20.8509 18.8201 17.2324 23.8831 17.2324H23.9087ZM23.8064 30.846C26.5169 30.846 28.2813 28.9735 28.3325 26.013C28.358 23.0777 26.5936 21.0787 23.9343 21.028C21.1982 20.9774 19.3315 23.0018 19.3315 25.9624C19.3315 28.9229 21.0959 30.846 23.8064 30.846Z" fill="#05AA85"/>
<path id="Vector_6" d="M58.1991 17.2324C63.2876 17.2324 67.021 20.9521 67.0465 26.013C67.0465 30.9979 63.2109 34.8188 58.1991 34.8188C53.2128 34.8188 49.3516 30.9726 49.3516 25.9877C49.3516 20.9521 53.1105 17.2577 58.1991 17.2577V17.2324ZM58.1991 30.846C60.9096 30.846 62.6739 28.9482 62.7251 25.9877C62.7507 23.0777 60.9607 21.0533 58.3013 21.0027C55.5653 20.9521 53.6986 22.9512 53.7242 25.9623C53.7242 28.9229 55.4886 30.846 58.1991 30.846Z" fill="#05AA85"/>
<path id="Vector_7" d="M84.4092 34.6157C82.5937 34.6157 81.085 34.5904 79.5507 34.6157C78.8092 34.6157 78.5791 34.0844 78.2466 33.6542C76.6357 31.5539 74.9991 29.4284 73.1069 27.4041C73.1069 29.4284 73.0558 31.478 73.1069 33.5024C73.1325 34.4133 72.8256 34.6157 71.9818 34.6157C68.6576 34.641 68.6576 34.6663 68.6576 31.4021C68.6576 26.9992 68.6576 22.571 68.6576 18.1681C68.6576 17.2571 68.8622 16.9535 69.8338 16.9535C73.1069 16.9535 73.1069 16.9281 73.1069 20.243V24.4688C74.8969 22.1408 76.4822 20.1671 77.9142 18.1174C78.5535 17.2318 79.2183 16.8522 80.2923 16.9535C81.4174 17.0547 82.5681 16.9535 84.0256 16.9535C82.3124 19.1296 80.7526 21.1286 79.1927 23.0771C77.8972 24.7134 77.8972 26.3582 79.1927 28.0114C80.8549 30.1116 82.517 32.2118 84.3836 34.5651L84.4092 34.6157Z" fill="#1D3D70"/>
<path id="Vector_8" d="M85.5598 25.8101C85.5598 23.2291 85.5854 20.6228 85.5598 18.0418C85.5598 17.2573 85.7388 16.9537 86.5827 16.979C89.5489 17.0296 92.5406 17.0296 95.5069 16.979C96.3251 16.979 96.5553 17.1814 96.5553 18.0165C96.5553 20.5216 96.6064 20.5216 94.126 20.5216C93.3589 20.5216 92.5918 20.471 91.8247 20.5216C91.2365 20.5722 90.3416 20.1673 90.137 20.8252C89.8813 21.7109 90.0091 22.723 90.0859 23.6846C90.1114 24.0641 90.6484 23.9376 90.9553 23.9376C92.2594 23.9376 93.5379 23.9629 94.842 23.9376C95.558 23.9376 95.8393 24.0895 95.8649 24.8739C95.9416 27.3537 95.9927 27.3537 93.5379 27.3537H92.6685C89.8557 27.3537 89.8813 27.3537 89.9836 30.2131C90.0091 30.9975 90.2904 31.1746 91.0064 31.1493C92.4384 31.0987 93.8959 31.1746 95.3279 31.124C96.2228 31.0734 96.5808 31.3011 96.5553 32.288C96.5297 34.616 96.5553 34.616 94.2283 34.616C91.6968 34.616 89.1397 34.5907 86.6082 34.616C85.79 34.616 85.5343 34.3882 85.5598 33.5785C85.611 30.9975 85.5598 28.3912 85.5598 25.8101Z" fill="#1D3D70"/>
<path id="Vector_9" d="M102.743 27.5308C102.743 25.5571 102.692 23.6087 102.743 21.635C102.794 20.5975 102.411 20.2685 101.439 20.395C100.979 20.4457 100.467 20.4457 100.007 20.395C99.3166 20.3191 98.3193 20.7999 98.0381 20.0914C97.7312 19.307 97.9102 18.2948 97.9614 17.3839C97.9614 16.8778 98.4216 17.0043 98.7285 17.0043C102.845 17.0043 106.962 17.0043 111.105 17.0043C111.642 17.0043 111.821 17.1814 111.897 17.7381C112.179 20.3444 112.128 20.4204 109.468 20.4204C107.9 20.4204 107.116 21.1795 107.116 22.6977C107.116 26.2909 107.116 29.8841 107.116 33.4773C107.116 34.3123 106.988 34.6413 106.042 34.6413C102.718 34.6413 102.718 34.6919 102.718 31.4277V27.5561L102.743 27.5308Z" fill="#1D3D70"/>
</g>
</g>
<defs>
<clipPath id="clip0_2798_7604">
<rect width="1440" height="9935" fill="white" transform="translate(-122 -21)"/>
</clipPath>
<clipPath id="clip1_2798_7604">
<rect width="112" height="52" fill="white"/>
</clipPath>
</defs>
</svg>
